#Comment line ignore any data following # character 
#Hierarchical Translation and Rotation (.htr) file 
[Header]	
#Header keywords are followed by a single value 
FileType HTR		#Single word string
DataType HTRS		#Translation followed by rotation and scale data
FileVersion 1		#integer
NumSegments 84		#integer
NumFrames 2		#integer
DataFrameRate 30		#integer, data frame rate in this file
EulerRotationOrder ZYX
CalibrationUnits mm
RotationUnits Degrees
GlobalAxisofGravity Y
BoneLengthAxis Y
ScaleFactor 1.00
[SegmentNames&Hierarchy]
#CHILD	PARENT
MASTER GLOBAL
root MASTER
chest root
L_mid_tent01 root
R_mid_tent01 root
spine01 root
Bip01_Neck chest
L_humerus chest
R_humerus chest
weapon_bone chest
Bip01_Head Bip01_Neck
eye_left_bone Bip01_Head
eye_right_bone Bip01_Head
L_forearm L_humerus
L_front_hand L_forearm
L_weapon_bone L_forearm
L_front_hand01_01 L_front_hand
L_front_hand02_01 L_front_hand
L_front_hand03_01 L_front_hand
L_front_hand01_02 L_front_hand01_01
L_front_hand02_02 L_front_hand02_01
L_front_hand03_02 L_front_hand03_01
R_forearm R_humerus
R_front_hand R_forearm
R_weapon_bone R_forearm
R_front_hand01_01 R_front_hand
R_front_hand02_01 R_front_hand
R_front_hand03_01 R_front_hand
R_front_hand01_02 R_front_hand01_01
R_front_hand02_02 R_front_hand02_01
R_front_hand03_02 R_front_hand03_01
null_rope01_connect L_mid_tent01
Rope1_Seg01 null_rope01_connect
Rope1_Seg02 Rope1_Seg01
Rope1_Seg03 Rope1_Seg02
Rope1_Seg04 Rope1_Seg03
Rope1_Seg05 Rope1_Seg04
Rope1_Seg06 Rope1_Seg05
Rope1_Seg07 Rope1_Seg06
Rope1_Seg09 Rope1_Seg07
L_mid_hand01 Rope1_Seg09
L_mid_hand02 Rope1_Seg09
L_mid_hand03 Rope1_Seg09
null_rope02_connect R_mid_tent01
Rope2_Seg01 null_rope02_connect
Rope2_Seg02 Rope2_Seg01
Rope2_Seg03 Rope2_Seg02
Rope2_Seg04 Rope2_Seg03
Rope2_Seg05 Rope2_Seg04
Rope2_Seg06 Rope2_Seg05
Rope2_Seg07 Rope2_Seg06
Rope2_Seg09 Rope2_Seg07
R_mid_hand01 Rope2_Seg09
R_mid_hand02 Rope2_Seg09
R_mid_hand03 Rope2_Seg09
spine02 spine01
spine03 spine02
pelvis spine03
null_rope03_connect pelvis
null_rope04_connect pelvis
Rope3_Seg01 null_rope03_connect
Rope3_Seg02 Rope3_Seg01
Rope3_Seg03 Rope3_Seg02
Rope3_Seg04 Rope3_Seg03
Rope3_Seg05 Rope3_Seg04
Rope3_Seg06 Rope3_Seg05
Rope3_Seg07 Rope3_Seg06
Rope3_Seg08 Rope3_Seg07
Rope3_Seg09 Rope3_Seg08
R_rear_hand01 Rope3_Seg09
R_rear_hand02 Rope3_Seg09
R_rear_hand03 Rope3_Seg09
Rope4_Seg01 null_rope04_connect
Rope4_Seg02 Rope4_Seg01
Rope4_Seg03 Rope4_Seg02
Rope4_Seg04 Rope4_Seg03
Rope4_Seg05 Rope4_Seg04
Rope4_Seg06 Rope4_Seg05
Rope4_Seg07 Rope4_Seg06
Rope4_Seg08 Rope4_Seg07
Rope4_Seg09 Rope4_Seg08
L_rear_hand01 Rope4_Seg09
L_rear_hand02 Rope4_Seg09
L_rear_hand03 Rope4_Seg09
[BasePosition]
#SegmentName Tx, Ty, Tz, Rx, Ry, Rz, BoneLength
MASTER 0.000000 0.000000 0.000000 -90.000000 0.000000 0.000000 10.000000 
root 0.000000 0.000000 0.000000 0.000000 0.000000 0.000000 10.000000 
chest 0.000000 0.000000 0.000000 0.000000 0.000000 0.000000 10.000000 
L_mid_tent01 0.000000 0.000000 0.000000 0.000000 0.000000 0.000000 10.000000 
R_mid_tent01 0.000000 0.000000 0.000000 0.000000 0.000000 0.000000 10.000000 
spine01 0.000000 0.000000 0.000000 0.000000 0.000000 0.000000 10.000000 
Bip01_Neck 0.000000 0.000000 0.000000 0.000000 0.000000 0.000000 10.000000 
L_humerus 0.000000 0.000000 0.000000 0.000000 0.000000 0.000000 10.000000 
R_humerus 0.000000 0.000000 0.000000 0.000000 0.000000 0.000000 10.000000 
weapon_bone 0.000000 0.000000 0.000000 0.000000 0.000000 0.000000 10.000000 
Bip01_Head 0.000000 0.000000 0.000000 0.000000 0.000000 0.000000 10.000000 
eye_left_bone 0.000000 0.000000 0.000000 0.000000 0.000000 0.000000 10.000000 
eye_right_bone 0.000000 0.000000 0.000000 0.000000 0.000000 0.000000 10.000000 
L_forearm 0.000000 0.000000 0.000000 0.000000 0.000000 0.000000 10.000000 
L_front_hand 0.000000 0.000000 0.000000 0.000000 0.000000 0.000000 10.000000 
L_weapon_bone 0.000000 0.000000 0.000000 0.000000 0.000000 0.000000 10.000000 
L_front_hand01_01 0.000000 0.000000 0.000000 0.000000 0.000000 0.000000 10.000000 
L_front_hand02_01 0.000000 0.000000 0.000000 0.000000 0.000000 0.000000 10.000000 
L_front_hand03_01 0.000000 0.000000 0.000000 0.000000 0.000000 0.000000 10.000000 
L_front_hand01_02 0.000000 0.000000 0.000000 0.000000 0.000000 0.000000 10.000000 
L_front_hand02_02 0.000000 0.000000 0.000000 0.000000 0.000000 0.000000 10.000000 
L_front_hand03_02 0.000000 0.000000 0.000000 0.000000 0.000000 0.000000 10.000000 
R_forearm 0.000000 0.000000 0.000000 0.000000 0.000000 0.000000 10.000000 
R_front_hand 0.000000 0.000000 0.000000 0.000000 0.000000 0.000000 10.000000 
R_weapon_bone 0.000000 0.000000 0.000000 0.000000 0.000000 0.000000 10.000000 
R_front_hand01_01 0.000000 0.000000 0.000000 0.000000 0.000000 0.000000 10.000000 
R_front_hand02_01 0.000000 0.000000 0.000000 0.000000 0.000000 0.000000 10.000000 
R_front_hand03_01 0.000000 0.000000 0.000000 0.000000 0.000000 0.000000 10.000000 
R_front_hand01_02 0.000000 0.000000 0.000000 0.000000 0.000000 0.000000 10.000000 
R_front_hand02_02 0.000000 0.000000 0.000000 0.000000 0.000000 0.000000 10.000000 
R_front_hand03_02 0.000000 0.000000 0.000000 0.000000 0.000000 0.000000 10.000000 
null_rope01_connect 0.000000 0.000000 0.000000 0.000000 0.000000 0.000000 10.000000 
Rope1_Seg01 0.000000 0.000000 0.000000 0.000000 0.000000 0.000000 10.000000 
Rope1_Seg02 0.000000 0.000000 0.000000 0.000000 0.000000 0.000000 10.000000 
Rope1_Seg03 0.000000 0.000000 0.000000 0.000000 0.000000 0.000000 10.000000 
Rope1_Seg04 0.000000 0.000000 0.000000 0.000000 0.000000 0.000000 10.000000 
Rope1_Seg05 0.000000 0.000000 0.000000 0.000000 0.000000 0.000000 10.000000 
Rope1_Seg06 0.000000 0.000000 0.000000 0.000000 0.000000 0.000000 10.000000 
Rope1_Seg07 0.000000 0.000000 0.000000 0.000000 0.000000 0.000000 10.000000 
Rope1_Seg09 0.000000 0.000000 0.000000 0.000000 0.000000 0.000000 10.000000 
L_mid_hand01 0.000000 0.000000 0.000000 0.000000 0.000000 0.000000 10.000000 
L_mid_hand02 0.000000 0.000000 0.000000 0.000000 0.000000 0.000000 10.000000 
L_mid_hand03 0.000000 0.000000 0.000000 0.000000 0.000000 0.000000 10.000000 
null_rope02_connect 0.000000 0.000000 0.000000 0.000000 0.000000 0.000000 10.000000 
Rope2_Seg01 0.000000 0.000000 0.000000 0.000000 0.000000 0.000000 10.000000 
Rope2_Seg02 0.000000 0.000000 0.000000 0.000000 0.000000 0.000000 10.000000 
Rope2_Seg03 0.000000 0.000000 0.000000 0.000000 0.000000 0.000000 10.000000 
Rope2_Seg04 0.000000 0.000000 0.000000 0.000000 0.000000 0.000000 10.000000 
Rope2_Seg05 0.000000 0.000000 0.000000 0.000000 0.000000 0.000000 10.000000 
Rope2_Seg06 0.000000 0.000000 0.000000 0.000000 0.000000 0.000000 10.000000 
Rope2_Seg07 0.000000 0.000000 0.000000 0.000000 0.000000 0.000000 10.000000 
Rope2_Seg09 0.000000 0.000000 0.000000 0.000000 0.000000 0.000000 10.000000 
R_mid_hand01 0.000000 0.000000 0.000000 0.000000 0.000000 0.000000 10.000000 
R_mid_hand02 0.000000 0.000000 0.000000 0.000000 0.000000 0.000000 10.000000 
R_mid_hand03 0.000000 0.000000 0.000000 0.000000 0.000000 0.000000 10.000000 
spine02 0.000000 0.000000 0.000000 0.000000 0.000000 0.000000 10.000000 
spine03 0.000000 0.000000 0.000000 0.000000 0.000000 0.000000 10.000000 
pelvis 0.000000 0.000000 0.000000 0.000000 0.000000 0.000000 10.000000 
null_rope03_connect 0.000000 0.000000 0.000000 0.000000 0.000000 0.000000 10.000000 
null_rope04_connect 0.000000 0.000000 0.000000 0.000000 0.000000 0.000000 10.000000 
Rope3_Seg01 0.000000 0.000000 0.000000 0.000000 0.000000 0.000000 10.000000 
Rope3_Seg02 0.000000 0.000000 0.000000 0.000000 0.000000 0.000000 10.000000 
Rope3_Seg03 0.000000 0.000000 0.000000 0.000000 0.000000 0.000000 10.000000 
Rope3_Seg04 0.000000 0.000000 0.000000 0.000000 0.000000 0.000000 10.000000 
Rope3_Seg05 0.000000 0.000000 0.000000 0.000000 0.000000 0.000000 10.000000 
Rope3_Seg06 0.000000 0.000000 0.000000 0.000000 0.000000 0.000000 10.000000 
Rope3_Seg07 0.000000 0.000000 0.000000 0.000000 0.000000 0.000000 10.000000 
Rope3_Seg08 0.000000 0.000000 0.000000 0.000000 0.000000 0.000000 10.000000 
Rope3_Seg09 0.000000 0.000000 0.000000 0.000000 0.000000 0.000000 10.000000 
R_rear_hand01 0.000000 0.000000 0.000000 0.000000 0.000000 0.000000 10.000000 
R_rear_hand02 0.000000 0.000000 0.000000 0.000000 0.000000 0.000000 10.000000 
R_rear_hand03 0.000000 0.000000 0.000000 0.000000 0.000000 0.000000 10.000000 
Rope4_Seg01 0.000000 0.000000 0.000000 0.000000 0.000000 0.000000 10.000000 
Rope4_Seg02 0.000000 0.000000 0.000000 0.000000 0.000000 0.000000 10.000000 
Rope4_Seg03 0.000000 0.000000 0.000000 0.000000 0.000000 0.000000 10.000000 
Rope4_Seg04 0.000000 0.000000 0.000000 0.000000 0.000000 0.000000 10.000000 
Rope4_Seg05 0.000000 0.000000 0.000000 0.000000 0.000000 0.000000 10.000000 
Rope4_Seg06 0.000000 0.000000 0.000000 0.000000 0.000000 0.000000 10.000000 
Rope4_Seg07 0.000000 0.000000 0.000000 0.000000 0.000000 0.000000 10.000000 
Rope4_Seg08 0.000000 0.000000 0.000000 0.000000 0.000000 0.000000 10.000000 
Rope4_Seg09 0.000000 0.000000 0.000000 0.000000 0.000000 0.000000 10.000000 
L_rear_hand01 0.000000 0.000000 0.000000 0.000000 0.000000 0.000000 10.000000 
L_rear_hand02 0.000000 0.000000 0.000000 0.000000 0.000000 0.000000 10.000000 
L_rear_hand03 0.000000 0.000000 0.000000 0.000000 0.000000 0.000000 10.000000 
#Beginning of Data. Separated by tabs
#Fr	Tx	Ty	Tz	Rx	Ry	Rz	SF
[MASTER]
53 -0.000860 5415.530273 5000.000000 0.001660 0.001660 0.001660 7370.750488
54 -0.000867 5510.528320 5000.000000 0.001660 0.001660 0.001660 7440.828125
[root]
53 -16.502104 -32.151020 1481.809082 -91.752373 -27.130228 -89.678062 1482.249756
54 -16.502062 -12.539823 1466.511353 -91.744560 -20.029375 -89.574394 1466.657837
[chest]
53 -84.512650 -34.090519 0.000000 8.146726 6.191442 179.272797 91.129311
54 -84.512650 -34.090519 0.000000 6.420007 6.542174 175.119522 91.129311
[L_mid_tent01]
53 27.299187 22.179541 -249.918701 -19.239386 17.420752 21.352064 252.381729
54 27.299189 22.179548 -249.918701 -19.808945 15.643181 18.519199 252.381729
[R_mid_tent01]
53 23.228794 24.509907 226.238495 -170.274002 -21.913836 34.555676 228.744751
54 23.228794 24.509907 226.238495 -168.412857 -20.621922 30.816236 228.744751
[spine01]
53 -0.361383 -0.195265 0.000000 0.001947 0.001311 22.077047 0.410763
54 -0.361383 -0.195265 0.000000 0.001947 0.001311 22.061932 0.410763
[Bip01_Neck]
53 165.484543 71.581718 0.000119 176.643677 -1.657967 43.431911 180.302734
54 165.484543 71.581718 0.000119 176.643677 -1.657967 43.431911 180.302734
[L_humerus]
53 -13.983130 -135.272980 -120.471481 9.560126 80.524597 100.022392 181.680161
54 -13.983130 -135.272980 -120.471481 1.376991 76.964264 91.722748 181.680161
[R_humerus]
53 -13.983309 -135.273102 125.287651 40.850239 -82.661980 54.506672 184.909012
54 -13.983309 -135.273102 125.287651 34.152016 -78.603249 61.314323 184.909012
[weapon_bone]
53 235.964890 -300.705902 0.000000 0.000000 -89.951546 -128.212341 382.234833
54 235.964890 -300.705902 0.000000 0.000000 -89.951546 -128.212341 382.234833
[Bip01_Head]
53 213.443558 185.717163 11.755653 5.200446 6.151311 -43.834991 283.173492
54 213.443771 185.716553 11.762756 5.200446 6.151311 -43.834991 283.173523
[eye_left_bone]
53 -24.626970 125.451866 -64.772606 0.000000 -90.000000 -99.840431 143.318359
54 -24.626970 125.451866 -64.772606 0.000000 -90.000000 -99.840431 143.318359
[eye_right_bone]
53 -24.626970 125.451866 64.327362 0.000000 -89.965736 80.156380 143.117676
54 -24.626970 125.451866 64.327362 0.000000 -89.965736 80.156380 143.117676
[L_forearm]
53 322.776093 0.000000 -0.000119 0.000376 -0.002317 -108.450287 322.776093
54 322.776093 0.000000 -0.000119 0.000383 -0.002316 -108.788582 322.776093
[L_front_hand]
53 241.149185 -0.042021 -3.300071 149.893951 -1.837326 -27.423067 241.171753
54 241.149185 -0.042021 -3.300071 149.893951 -1.837326 -27.423067 241.171753
[L_weapon_bone]
53 156.183838 0.000000 0.000000 0.000014 0.000007 0.000001 156.183838
54 156.183838 0.000000 0.000000 0.000014 0.000007 0.000001 156.183838
[L_front_hand01_01]
53 86.095154 20.947098 -0.655860 -0.366594 -0.477154 75.385574 88.609184
54 86.095154 20.947098 -0.655860 -0.366594 -0.477154 75.385574 88.609184
[L_front_hand02_01]
53 86.935165 -11.437475 24.513514 154.399796 -59.883835 -61.369587 91.046425
54 86.935165 -11.437475 24.513514 154.399796 -59.883835 -61.369587 91.046425
[L_front_hand03_01]
53 86.637497 -14.123976 -20.424902 -153.913849 58.118122 -62.702866 90.126129
54 86.637497 -14.123976 -20.424902 -153.913849 58.118130 -62.702866 90.126129
[L_front_hand01_02]
53 71.020905 -0.000179 0.000030 0.000334 -0.002323 -106.379684 71.020905
54 71.020905 -0.000179 0.000030 0.000334 -0.002323 -106.379684 71.020905
[L_front_hand02_02]
53 71.020927 -0.000119 0.000060 0.000334 -0.002323 -106.379684 71.020927
54 71.020927 -0.000119 0.000060 0.000334 -0.002323 -106.379684 71.020927
[L_front_hand03_02]
53 71.020905 -0.000060 0.000060 0.000334 -0.002323 -106.379684 71.020905
54 71.020905 -0.000060 0.000060 0.000334 -0.002323 -106.379684 71.020905
[R_forearm]
53 322.776428 -0.000060 0.000030 0.205160 0.058503 -107.084747 322.776428
54 322.776428 -0.000060 0.000030 0.206448 0.061107 -107.426018 322.776428
[R_front_hand]
53 238.847015 -0.006795 2.210259 -8.879457 -10.642941 -26.315098 238.857239
54 238.847015 -0.006795 2.210259 -8.879457 -10.642941 -26.315098 238.857239
[R_weapon_bone]
53 155.664093 0.002503 -0.000030 0.003487 0.001180 -90.988930 155.664078
54 155.664093 0.002503 -0.000030 0.003487 0.001180 -90.988930 155.664078
[R_front_hand01_01]
53 87.624611 14.231146 22.918642 -154.633499 -59.950619 61.746044 91.683487
54 87.624611 14.231146 22.918642 -154.633499 -59.950619 61.746044 91.683487
[R_front_hand02_01]
53 89.356956 14.367283 -19.491137 154.602661 58.302849 63.744389 92.579636
54 89.356956 14.367283 -19.491137 154.602661 58.302849 63.744389 92.579636
[R_front_hand03_01]
53 87.286232 -22.307278 -0.143439 0.162155 -0.423168 -75.767921 90.091743
54 87.286232 -22.307278 -0.143439 0.162155 -0.423168 -75.767921 90.091743
[R_front_hand01_02]
53 71.020905 0.000060 0.000119 0.002323 -0.000334 106.381714 71.020905
54 71.020905 0.000060 0.000119 0.002323 -0.000334 106.381714 71.020905
[R_front_hand02_02]
53 71.020844 -0.000030 -0.000119 0.002323 -0.000334 106.381714 71.020836
54 71.020844 -0.000030 -0.000119 0.002323 -0.000334 106.381714 71.020836
[R_front_hand03_02]
53 71.020905 0.000000 0.000030 0.002323 -0.000334 106.381714 71.020905
54 71.020905 0.000000 0.000030 0.002323 -0.000334 106.381714 71.020905
[null_rope01_connect]
53 328.732483 0.000000 -0.000238 -135.165009 -62.837719 -131.843552 328.732483
54 328.732483 0.000000 -0.000238 -143.440826 -63.553558 -127.597687 328.732483
[Rope1_Seg01]
53 -0.000020 0.000002 0.000008 64.084633 6.894260 -125.472458 0.000022
54 -0.000020 0.000001 0.000006 56.281212 2.215859 -123.435806 0.000021
[Rope1_Seg02]
53 139.999863 -0.000179 0.000000 -16.564850 3.590252 5.296631 139.999863
54 139.999863 -0.000179 0.000000 -14.104613 4.480582 4.071439 139.999863
[Rope1_Seg03]
53 139.999924 0.000060 -0.000060 -11.351790 1.214872 6.589748 139.999924
54 139.999924 0.000060 -0.000060 -12.313067 3.397793 4.892131 139.999924
[Rope1_Seg04]
53 139.999924 -0.000060 -0.000119 -12.930949 2.711978 8.225734 139.999924
54 139.999924 -0.000060 -0.000119 -12.060053 2.614897 7.227316 139.999924
[Rope1_Seg05]
53 139.999832 0.000119 -0.000060 -5.750122 1.279890 4.137809 139.999832
54 139.999832 0.000119 -0.000060 -5.304703 0.283733 4.802310 139.999832
[Rope1_Seg06]
53 139.999954 0.000119 -0.000060 -2.388597 0.211191 2.218494 139.999954
54 139.999954 0.000119 -0.000060 -2.210318 -0.032498 2.332296 139.999954
[Rope1_Seg07]
53 139.999985 0.000060 0.000000 -1.392267 0.073149 1.405483 139.999985
54 139.999985 0.000060 0.000000 -1.270359 -0.066227 1.461499 139.999985
[Rope1_Seg09]
53 121.602913 0.000119 -0.000089 -89.793175 -1.359789 0.847147 121.602913
54 121.602913 0.000119 -0.000089 -89.793175 -1.359789 0.847147 121.602913
[L_mid_hand01]
53 103.859421 1.038730 8.195221 130.544373 -67.584534 -38.866943 104.187431
54 103.859421 1.038730 8.195221 130.544373 -67.584534 -38.866943 104.187431
[L_mid_hand02]
53 105.572853 -4.139662 -10.864139 -168.923172 43.409309 -73.498886 106.211075
54 105.572853 -4.139662 -10.864139 -168.923172 43.409309 -73.498886 106.211075
[L_mid_hand03]
53 104.641464 17.579376 -3.913581 -6.012626 17.808172 74.893661 106.179977
54 104.641464 17.579376 -3.913581 -6.012625 17.808172 74.893669 106.179977
[null_rope02_connect]
53 328.732849 0.000179 -0.000119 -119.544228 67.332809 -20.008883 328.732849
54 328.732849 0.000179 -0.000119 -128.267426 67.646225 -25.135740 328.732849
[Rope2_Seg01]
53 0.000074 0.000008 0.000000 17.057568 12.614803 -41.741642 0.000075
54 0.000075 0.000006 0.000000 31.642702 8.677385 -43.958916 0.000075
[Rope2_Seg02]
53 139.999741 -0.000060 -0.000119 43.377106 -12.850779 -8.932498 139.999756
54 139.999741 -0.000060 -0.000119 29.408390 -12.249691 -6.175286 139.999756
[Rope2_Seg03]
53 140.000107 0.000030 0.000000 -0.943338 -8.984249 4.442620 140.000107
54 140.000107 0.000030 0.000000 -0.041853 -7.691823 3.375631 140.000107
[Rope2_Seg04]
53 139.999802 0.000000 -0.000060 14.525466 -12.234807 -6.217472 139.999802
54 139.999802 0.000000 -0.000060 11.179367 -10.445132 -4.237274 139.999802
[Rope2_Seg05]
53 139.999985 -0.000060 0.000119 9.847665 -12.156481 -5.393471 139.999985
54 139.999985 -0.000060 0.000119 9.669049 -10.526643 -5.308261 139.999985
[Rope2_Seg06]
53 139.999893 -0.000030 -0.000119 2.736497 -6.606868 -1.028459 139.999893
54 139.999893 -0.000030 -0.000119 2.776710 -5.428561 -1.189895 139.999893
[Rope2_Seg07]
53 139.999893 0.000060 -0.000060 1.365479 -4.326597 -0.465686 139.999893
54 139.999893 0.000060 -0.000060 1.373481 -3.439887 -0.534410 139.999893
[Rope2_Seg09]
53 121.338966 0.000089 -0.000060 33.793236 -1.359788 -0.847141 121.338966
54 121.338966 0.000089 -0.000060 33.793236 -1.359788 -0.847141 121.338966
[R_mid_hand01]
53 104.680779 11.144459 -10.335981 -16.212063 45.237247 70.462852 105.778534
54 104.680779 11.144459 -10.335981 -16.212063 45.237247 70.462852 105.778534
[R_mid_hand02]
53 104.070427 2.443552 8.231699 49.067368 -67.749771 39.286453 104.424065
54 104.070427 2.443552 8.231699 49.067368 -67.749771 39.286453 104.424065
[R_mid_hand03]
53 106.028137 -11.221827 -5.996406 -177.101105 15.551026 -76.585571 106.788818
54 106.028137 -11.221827 -5.996406 -177.101105 15.551026 -76.585571 106.788818
[spine02]
53 129.756927 0.001550 0.000119 0.261466 -4.053843 -11.518031 129.756927
54 129.756927 0.001550 0.000119 0.293002 -4.051213 -11.991858 129.756927
[spine03]
53 78.613899 0.081210 -4.898987 1.839411 3.859320 15.606999 78.766441
54 78.613899 0.081199 -4.898987 1.858486 3.850072 15.895689 78.766441
[pelvis]
53 169.435242 0.051022 0.000000 -0.052778 -0.181662 12.330400 169.435257
54 169.435242 0.051022 0.000000 -0.058653 -0.180823 12.937476 169.435257
[null_rope03_connect]
53 -1.257226 -2.466202 137.391083 -164.974869 -89.395744 -116.359268 137.418976
54 -1.257226 -2.466202 137.391083 176.970200 -89.404556 -105.825241 137.418976
[null_rope04_connect]
53 -1.259640 -2.480268 -137.844437 -164.974869 -89.395744 -116.359268 137.872513
54 -1.259640 -2.480268 -137.844437 176.970200 -89.404556 -105.825241 137.872513
[Rope3_Seg01]
53 0.000000 0.000000 0.000000 -130.790421 5.114946 -78.993546 0.000000
54 0.000000 0.000000 0.000000 -131.565796 13.044819 -80.371513 0.000000
[Rope3_Seg02]
53 139.999924 -0.000119 0.000060 0.052220 -1.096026 -0.631915 139.999924
54 139.999924 -0.000119 0.000060 0.065115 -0.892908 -1.161137 139.999924
[Rope3_Seg03]
53 139.999924 -0.000119 0.000119 0.083003 -1.451322 -1.735527 139.999924
54 139.999924 -0.000119 0.000119 0.091972 -1.159122 -2.081625 139.999924
[Rope3_Seg04]
53 139.999924 0.000119 0.000000 0.023578 -1.541265 -1.996986 139.999924
54 139.999924 0.000119 0.000000 0.028428 -1.437317 -2.922133 139.999924
[Rope3_Seg05]
53 139.999924 -0.000238 0.000060 0.239488 1.712264 6.295087 139.999924
54 139.999924 -0.000238 0.000060 0.143404 1.292040 5.540017 139.999924
[Rope3_Seg06]
53 139.999893 -0.000119 -0.000060 0.327672 1.871467 6.004751 139.999893
54 139.999893 -0.000119 -0.000060 0.248735 1.608212 5.953140 139.999893
[Rope3_Seg07]
53 139.999771 0.000060 -0.000119 0.346095 0.863260 3.031479 139.999771
54 139.999771 0.000060 -0.000119 0.316026 0.706223 2.842789 139.999771
[Rope3_Seg08]
53 139.999985 -0.000060 0.000000 0.397065 0.563757 1.947396 139.999985
54 139.999985 -0.000060 0.000000 0.380066 0.465502 1.828265 139.999985
[Rope3_Seg09]
53 90.185997 -0.000179 -0.000060 89.793228 -1.359877 -0.847183 90.185997
54 90.185997 -0.000179 -0.000060 89.793228 -1.359877 -0.847183 90.185997
[R_rear_hand01]
53 103.366196 -6.073594 -10.757982 -177.714203 24.565960 -73.910950 104.101845
54 103.366196 -6.073594 -10.757982 -177.714203 24.565960 -73.910950 104.101845
[R_rear_hand02]
53 100.509819 12.039542 -7.992327 -12.874829 36.868488 72.167213 101.543350
54 100.509819 12.039542 -7.992327 -12.874829 36.868488 72.167213 101.543350
[R_rear_hand03]
53 101.539970 5.215704 5.435467 71.484581 -71.816628 21.513813 101.819031
54 101.539970 5.215704 5.435467 71.484581 -71.816628 21.513813 101.819031
[Rope4_Seg01]
53 0.000010 0.000002 -0.000008 46.370064 11.662884 -115.692818 0.000013
54 0.000010 0.000001 -0.000006 45.522671 19.561903 -115.146935 0.000011
[Rope4_Seg02]
53 139.999985 0.000060 0.000119 0.498488 2.121842 4.107529 139.999985
54 139.999985 0.000060 0.000119 0.358931 2.116385 4.332606 139.999985
[Rope4_Seg03]
53 139.999924 0.000000 -0.000238 0.444009 3.182831 6.107398 139.999924
54 139.999924 0.000000 -0.000238 0.211663 3.145565 6.378264 139.999924
[Rope4_Seg04]
53 139.999985 0.000000 0.000119 -0.652106 7.473315 20.539070 139.999985
54 139.999985 0.000000 0.000119 -1.654107 8.196200 21.508024 139.999985
[Rope4_Seg05]
53 139.999802 -0.000060 -0.000119 2.229966 2.675998 -8.896343 139.999802
54 139.999802 -0.000060 -0.000119 2.032763 1.636292 -5.863769 139.999802
[Rope4_Seg06]
53 139.999924 0.000000 0.000060 2.556695 -2.075969 -15.543591 139.999924
54 139.999924 0.000000 0.000060 4.180446 -4.159475 -19.581636 139.999924
[Rope4_Seg07]
53 139.999802 0.000000 0.000000 0.419764 -0.318754 -4.402289 139.999802
54 139.999802 0.000000 0.000000 0.498212 -1.119316 -5.213099 139.999802
[Rope4_Seg08]
53 139.999924 0.000000 0.000119 -1.359544 -0.195370 -2.429651 139.999924
54 139.999924 0.000000 0.000119 -1.368000 -0.630846 -2.835112 139.999924
[Rope4_Seg09]
53 90.185791 0.000060 0.000060 -135.617828 2.228885 0.850567 90.185791
54 90.185791 0.000060 0.000060 -135.617828 2.228885 0.850567 90.185791
[L_rear_hand01]
53 101.696655 -8.392275 -7.654577 -12.874829 -36.868488 107.832764 102.329041
54 101.696655 -8.392275 -7.654577 -12.874829 -36.868488 107.832764 102.329041
[L_rear_hand02]
53 102.726799 -1.568258 5.773216 71.484581 71.816628 158.486160 102.900848
54 102.726799 -1.568258 5.773216 71.484581 71.816628 158.486160 102.900848
[L_rear_hand03]
53 104.552910 9.721220 -10.420293 -177.714203 -24.565960 -106.089035 105.519653
54 104.552910 9.721220 -10.420293 -177.714203 -24.565960 -106.089035 105.519653
